<?xml version="1.0" encoding="iso-8859-1"?>
<!-- Generator: Adobe Illustrator 19.0.0, SVG Export Plug-In . SVG Version: 6.00 Build 0)  -->
<svg version="1.1" id="Capa_1" xmlns="http://www.w3.org/2000/svg" xmlns:xlink="http://www.w3.org/1999/xlink" x="0px" y="0px"
	 viewBox="0 0 382.8 382.8" style="enable-background:new 0 0 382.8 382.8;" xml:space="preserve">
<g>
	<g>
		<g>
			<path d="M141.4,193.6c12-12,19.6-28.8,19.6-47.6c0-6.8-2-14.4-5.2-22.4c-3.6-8.4-8.4-16.8-14-25.6c0-0.4-0.4-0.4-0.4-0.8
				c-11.6-17.6-26.8-34.8-39.6-49.6l-8-9.2l-8,9.2C61,76.4,26.6,116,26.6,146c0,18.4,7.6,35.2,19.6,47.6c12,12,28.8,19.6,47.6,19.6
				C112.2,213.2,129,205.6,141.4,193.6z"/>
			<path d="M321,2.4L319,0l-2,2.4c-14.8,17.2-35.2,40.8-35.2,57.6c0,10.4,4,19.6,10.8,26.4s16,10.8,26.4,10.8
				c10.4,0,19.6-4,26.4-10.8c6.8-6.8,10.8-16,10.8-26.4C356.2,43.2,335.8,19.6,321,2.4z"/>
			<path d="M192.6,58c-6,7.2-12.8,14.8-19.6,23.2l-10.4,12c4.8,7.6,8.8,15.2,12,22.8c4.4,10.4,6.8,20.4,6.8,30c0,24-9.6,46-25.6,62
				s-37.6,25.6-62,25.6c-5.6,0-10.8-0.4-16-1.6c-2-0.4-3.6-0.8-5.6-1.2c-0.8,3.2-1.6,6.4-2.4,9.6c-1.2,6-2,11.6-2,17.6
				c0,34.4,14,65.6,36.4,88.4c22.8,22.8,54,36.4,88.4,36.4c34.4,0,65.6-14,88.4-36.4c22.8-22.4,36.4-54,36.4-88.4
				c0-54.8-61.2-125.2-105.2-176.4C205.4,72.8,199,65.2,192.6,58z"/>
		</g>
	</g>
</g>
<g>
</g>
<g>
</g>
<g>
</g>
<g>
</g>
<g>
</g>
<g>
</g>
<g>
</g>
<g>
</g>
<g>
</g>
<g>
</g>
<g>
</g>
<g>
</g>
<g>
</g>
<g>
</g>
<g>
</g>
</svg>
